<?xml version="1.0" standalone="no"?>
<!DOCTYPE svg PUBLIC "-//W3C//DTD SVG 20010904//EN"
 "http://www.w3.org/TR/2001/REC-SVG-20010904/DTD/svg10.dtd">
<svg version="1.0" xmlns="http://www.w3.org/2000/svg"
 width="425.000000pt" height="425.000000pt" viewBox="0 0 425.000000 425.000000"
 preserveAspectRatio="xMidYMid meet">
<metadata>
Created by potrace 1.11, written by Peter Selinger 2001-2013
</metadata>
<g transform="translate(0.000000,425.000000) scale(0.100000,-0.100000)"
fill="#000000" stroke="none">
<path d="M1995 4171 c-27 -15 -70 -40 -95 -54 -55 -32 -101 -34 -190 -7 -72
22 -179 26 -213 9 -12 -6 -65 -53 -117 -104 l-95 -92 -115 -6 c-177 -8 -223
-35 -295 -176 -52 -101 -89 -136 -176 -162 -180 -54 -208 -89 -243 -309 -10
-57 -40 -96 -119 -148 -149 -101 -178 -171 -146 -347 15 -81 9 -101 -52 -177
-64 -79 -90 -136 -96 -213 -5 -54 -1 -70 38 -159 l42 -100 -22 -70 c-13 -39
-32 -95 -42 -124 -39 -110 -20 -184 74 -290 31 -34 60 -74 63 -88 4 -14 3 -56
-2 -92 -14 -106 -9 -176 16 -226 22 -47 95 -113 161 -146 52 -27 85 -84 98
-168 24 -151 57 -189 216 -242 52 -17 104 -40 117 -50 13 -10 43 -57 67 -104
50 -97 97 -151 150 -174 21 -8 78 -17 136 -19 55 -2 111 -6 124 -9 13 -3 58
-41 99 -84 117 -126 175 -142 333 -95 103 32 134 26 245 -43 70 -43 83 -47
150 -50 74 -4 74 -4 171 51 54 31 110 59 125 62 16 4 63 -3 121 -19 166 -46
200 -36 333 94 l91 90 59 0 c33 0 97 7 144 15 106 19 138 43 196 149 81 145
92 155 229 195 80 23 143 70 170 127 9 20 24 75 32 123 8 47 22 100 32 116 9
17 51 53 92 81 139 95 172 171 150 340 -12 93 -12 95 12 137 14 23 35 51 47
62 12 11 36 47 53 80 26 52 31 71 31 140 1 70 -3 88 -31 146 -49 102 -49 104
-4 230 44 123 53 198 27 248 -8 15 -44 63 -80 106 l-66 79 2 151 c4 185 -4
206 -101 274 -132 94 -163 130 -176 206 -24 140 -64 186 -205 233 -122 41
-154 67 -194 156 -67 146 -126 185 -295 193 -59 3 -118 12 -133 19 -14 8 -55
46 -90 85 -35 39 -81 80 -103 92 -51 27 -136 26 -225 -2 -89 -28 -125 -26
-190 11 -132 75 -140 78 -214 78 -59 0 -79 -5 -121 -29z m1662 -922 c81 -39
101 -92 77 -205 -62 -304 -423 -815 -959 -1363 -446 -455 -827 -731 -1009
-731 -100 0 -184 58 -207 142 -32 121 34 350 187 648 68 134 71 142 38 105
-437 -478 -682 -696 -924 -819 -131 -66 -172 -75 -234 -48 -51 23 -131 93
-152 133 -31 61 -7 224 56 385 119 300 419 735 792 1146 48 53 88 99 88 103 0
3 -24 -12 -52 -34 -67 -50 -160 -97 -219 -110 -79 -18 -125 5 -164 82 -30 61
-32 99 -5 142 24 39 102 105 124 105 22 0 29 -17 16 -40 -6 -11 -8 -20 -5 -20
12 0 74 36 300 170 287 172 304 180 358 180 54 0 162 -52 191 -93 l20 -27 -26
-53 c-15 -28 -101 -149 -193 -267 -600 -778 -817 -1087 -919 -1312 -62 -137
-56 -162 27 -104 173 119 944 889 1501 1498 60 66 100 101 123 109 56 18 221
8 263 -17 67 -39 56 -67 -101 -255 -190 -229 -384 -541 -573 -920 -133 -266
-189 -431 -152 -445 54 -21 518 408 849 786 258 293 579 759 617 895 10 35 10
51 0 74 -14 35 -30 40 -84 29 -50 -11 -68 -4 -64 24 4 26 43 51 153 95 100 41
194 45 262 12z"/>
</g>
</svg>
